<mxfile host="app.diagrams.net" agent="Mozilla/5.0 (Windows NT 10.0; Win64; x64) AppleWebKit/537.36 (KHTML, like Gecko) Chrome/140.0.0.0 Safari/537.36" version="28.2.5">
  <diagram name="Page-1" id="8d8i4FMbmnA_UareYWRy">
    <mxGraphModel dx="872" dy="511" grid="1" gridSize="10" guides="1" tooltips="1" connect="1" arrows="1" fold="1" page="1" pageScale="1" pageWidth="827" pageHeight="1169" math="0" shadow="0">
      <root>
        <mxCell id="0" />
        <mxCell id="1" parent="0" />
        <mxCell id="hZwKlCVVIhIbkK9A7yld-8" style="edgeStyle=orthogonalEdgeStyle;rounded=0;orthogonalLoop=1;jettySize=auto;html=1;exitX=0.5;exitY=1;exitDx=0;exitDy=0;entryX=0.5;entryY=0;entryDx=0;entryDy=0;" edge="1" parent="1" source="hZwKlCVVIhIbkK9A7yld-1" target="hZwKlCVVIhIbkK9A7yld-5">
          <mxGeometry relative="1" as="geometry" />
        </mxCell>
        <mxCell id="hZwKlCVVIhIbkK9A7yld-1" value="Admin" style="rounded=0;whiteSpace=wrap;html=1;fillColor=#1ba1e2;fontColor=#ffffff;strokeColor=#006EAF;" vertex="1" parent="1">
          <mxGeometry x="30" y="20" width="120" height="60" as="geometry" />
        </mxCell>
        <mxCell id="hZwKlCVVIhIbkK9A7yld-10" style="edgeStyle=orthogonalEdgeStyle;rounded=0;orthogonalLoop=1;jettySize=auto;html=1;exitX=0.5;exitY=1;exitDx=0;exitDy=0;entryX=0.5;entryY=0;entryDx=0;entryDy=0;" edge="1" parent="1" source="hZwKlCVVIhIbkK9A7yld-2" target="hZwKlCVVIhIbkK9A7yld-3">
          <mxGeometry relative="1" as="geometry" />
        </mxCell>
        <mxCell id="hZwKlCVVIhIbkK9A7yld-2" value="Login to System" style="ellipse;whiteSpace=wrap;html=1;aspect=fixed;fillColor=#1ba1e2;fontColor=#ffffff;strokeColor=#006EAF;" vertex="1" parent="1">
          <mxGeometry x="240" y="20" width="80" height="80" as="geometry" />
        </mxCell>
        <mxCell id="hZwKlCVVIhIbkK9A7yld-3" value="Check Credentials" style="ellipse;whiteSpace=wrap;html=1;aspect=fixed;fillColor=#1ba1e2;fontColor=#ffffff;strokeColor=#006EAF;" vertex="1" parent="1">
          <mxGeometry x="240" y="130" width="80" height="80" as="geometry" />
        </mxCell>
        <mxCell id="hZwKlCVVIhIbkK9A7yld-42" style="edgeStyle=orthogonalEdgeStyle;curved=1;rounded=0;orthogonalLoop=1;jettySize=auto;html=1;exitX=1;exitY=0;exitDx=0;exitDy=0;entryX=0;entryY=0.25;entryDx=0;entryDy=0;" edge="1" parent="1" source="hZwKlCVVIhIbkK9A7yld-4" target="hZwKlCVVIhIbkK9A7yld-23">
          <mxGeometry relative="1" as="geometry" />
        </mxCell>
        <mxCell id="hZwKlCVVIhIbkK9A7yld-43" style="edgeStyle=orthogonalEdgeStyle;curved=1;rounded=0;orthogonalLoop=1;jettySize=auto;html=1;exitX=1;exitY=0.5;exitDx=0;exitDy=0;entryX=0;entryY=0.75;entryDx=0;entryDy=0;" edge="1" parent="1" source="hZwKlCVVIhIbkK9A7yld-4" target="hZwKlCVVIhIbkK9A7yld-22">
          <mxGeometry relative="1" as="geometry" />
        </mxCell>
        <mxCell id="hZwKlCVVIhIbkK9A7yld-44" style="edgeStyle=orthogonalEdgeStyle;curved=1;rounded=0;orthogonalLoop=1;jettySize=auto;html=1;exitX=1;exitY=1;exitDx=0;exitDy=0;entryX=0;entryY=0.5;entryDx=0;entryDy=0;" edge="1" parent="1" source="hZwKlCVVIhIbkK9A7yld-4" target="hZwKlCVVIhIbkK9A7yld-21">
          <mxGeometry relative="1" as="geometry" />
        </mxCell>
        <mxCell id="hZwKlCVVIhIbkK9A7yld-49" style="edgeStyle=orthogonalEdgeStyle;curved=1;rounded=0;orthogonalLoop=1;jettySize=auto;html=1;exitX=1;exitY=1;exitDx=0;exitDy=0;entryX=0;entryY=0.75;entryDx=0;entryDy=0;" edge="1" parent="1" source="hZwKlCVVIhIbkK9A7yld-4" target="hZwKlCVVIhIbkK9A7yld-20">
          <mxGeometry relative="1" as="geometry" />
        </mxCell>
        <mxCell id="hZwKlCVVIhIbkK9A7yld-52" style="edgeStyle=orthogonalEdgeStyle;curved=1;rounded=0;orthogonalLoop=1;jettySize=auto;html=1;exitX=0.5;exitY=1;exitDx=0;exitDy=0;entryX=0;entryY=0.5;entryDx=0;entryDy=0;" edge="1" parent="1" source="hZwKlCVVIhIbkK9A7yld-4" target="hZwKlCVVIhIbkK9A7yld-19">
          <mxGeometry relative="1" as="geometry">
            <Array as="points">
              <mxPoint x="510" y="220" />
              <mxPoint x="510" y="340" />
            </Array>
          </mxGeometry>
        </mxCell>
        <mxCell id="hZwKlCVVIhIbkK9A7yld-53" style="edgeStyle=orthogonalEdgeStyle;curved=1;rounded=0;orthogonalLoop=1;jettySize=auto;html=1;exitX=0.5;exitY=1;exitDx=0;exitDy=0;entryX=0;entryY=0.75;entryDx=0;entryDy=0;" edge="1" parent="1" source="hZwKlCVVIhIbkK9A7yld-4" target="hZwKlCVVIhIbkK9A7yld-16">
          <mxGeometry relative="1" as="geometry">
            <Array as="points">
              <mxPoint x="490" y="220" />
              <mxPoint x="490" y="360" />
              <mxPoint x="590" y="360" />
            </Array>
          </mxGeometry>
        </mxCell>
        <mxCell id="hZwKlCVVIhIbkK9A7yld-54" style="edgeStyle=orthogonalEdgeStyle;curved=1;rounded=0;orthogonalLoop=1;jettySize=auto;html=1;exitX=0;exitY=1;exitDx=0;exitDy=0;" edge="1" parent="1" source="hZwKlCVVIhIbkK9A7yld-4" target="hZwKlCVVIhIbkK9A7yld-18">
          <mxGeometry relative="1" as="geometry">
            <mxPoint x="390" y="220" as="sourcePoint" />
          </mxGeometry>
        </mxCell>
        <mxCell id="hZwKlCVVIhIbkK9A7yld-57" style="edgeStyle=orthogonalEdgeStyle;curved=1;rounded=0;orthogonalLoop=1;jettySize=auto;html=1;exitX=0;exitY=0.5;exitDx=0;exitDy=0;entryX=0.75;entryY=0;entryDx=0;entryDy=0;" edge="1" parent="1" source="hZwKlCVVIhIbkK9A7yld-4" target="hZwKlCVVIhIbkK9A7yld-17">
          <mxGeometry relative="1" as="geometry">
            <Array as="points">
              <mxPoint x="380" y="220" />
              <mxPoint x="295" y="220" />
            </Array>
          </mxGeometry>
        </mxCell>
        <mxCell id="hZwKlCVVIhIbkK9A7yld-4" value="Manage Modules" style="ellipse;whiteSpace=wrap;html=1;aspect=fixed;fillColor=#1ba1e2;fontColor=#ffffff;strokeColor=#006EAF;" vertex="1" parent="1">
          <mxGeometry x="380" y="140" width="80" height="80" as="geometry" />
        </mxCell>
        <mxCell id="hZwKlCVVIhIbkK9A7yld-9" style="edgeStyle=orthogonalEdgeStyle;rounded=0;orthogonalLoop=1;jettySize=auto;html=1;exitX=0.5;exitY=1;exitDx=0;exitDy=0;entryX=0.5;entryY=0;entryDx=0;entryDy=0;" edge="1" parent="1" source="hZwKlCVVIhIbkK9A7yld-5" target="hZwKlCVVIhIbkK9A7yld-6">
          <mxGeometry relative="1" as="geometry" />
        </mxCell>
        <mxCell id="hZwKlCVVIhIbkK9A7yld-5" value="Forgot password" style="ellipse;whiteSpace=wrap;html=1;aspect=fixed;fillColor=#1ba1e2;fontColor=#ffffff;strokeColor=#006EAF;" vertex="1" parent="1">
          <mxGeometry x="40" y="130" width="80" height="80" as="geometry" />
        </mxCell>
        <mxCell id="hZwKlCVVIhIbkK9A7yld-6" value="Send Email to User" style="ellipse;whiteSpace=wrap;html=1;aspect=fixed;fillColor=#1ba1e2;fontColor=#ffffff;strokeColor=#006EAF;" vertex="1" parent="1">
          <mxGeometry x="40" y="270" width="80" height="80" as="geometry" />
        </mxCell>
        <mxCell id="hZwKlCVVIhIbkK9A7yld-7" style="edgeStyle=orthogonalEdgeStyle;rounded=0;orthogonalLoop=1;jettySize=auto;html=1;exitX=1;exitY=0.5;exitDx=0;exitDy=0;entryX=0;entryY=0.375;entryDx=0;entryDy=0;entryPerimeter=0;" edge="1" parent="1" source="hZwKlCVVIhIbkK9A7yld-1" target="hZwKlCVVIhIbkK9A7yld-2">
          <mxGeometry relative="1" as="geometry" />
        </mxCell>
        <mxCell id="hZwKlCVVIhIbkK9A7yld-13" style="edgeStyle=orthogonalEdgeStyle;rounded=0;orthogonalLoop=1;jettySize=auto;html=1;exitX=0.5;exitY=1;exitDx=0;exitDy=0;" edge="1" parent="1" source="hZwKlCVVIhIbkK9A7yld-11" target="hZwKlCVVIhIbkK9A7yld-4">
          <mxGeometry relative="1" as="geometry" />
        </mxCell>
        <mxCell id="hZwKlCVVIhIbkK9A7yld-11" value="Check Roles of Access" style="ellipse;whiteSpace=wrap;html=1;aspect=fixed;fillColor=#1ba1e2;fontColor=#ffffff;strokeColor=#006EAF;" vertex="1" parent="1">
          <mxGeometry x="380" y="20" width="80" height="80" as="geometry" />
        </mxCell>
        <mxCell id="hZwKlCVVIhIbkK9A7yld-12" style="edgeStyle=orthogonalEdgeStyle;rounded=0;orthogonalLoop=1;jettySize=auto;html=1;exitX=1;exitY=0.5;exitDx=0;exitDy=0;entryX=0.013;entryY=0.363;entryDx=0;entryDy=0;entryPerimeter=0;" edge="1" parent="1" source="hZwKlCVVIhIbkK9A7yld-3" target="hZwKlCVVIhIbkK9A7yld-11">
          <mxGeometry relative="1" as="geometry" />
        </mxCell>
        <mxCell id="hZwKlCVVIhIbkK9A7yld-14" value="Manager User Permission" style="rounded=0;whiteSpace=wrap;html=1;fillColor=#1ba1e2;fontColor=#ffffff;strokeColor=#006EAF;" vertex="1" parent="1">
          <mxGeometry x="310" y="410" width="130" height="40" as="geometry" />
        </mxCell>
        <mxCell id="hZwKlCVVIhIbkK9A7yld-15" value="Manage System Admins" style="rounded=0;whiteSpace=wrap;html=1;fillColor=#1ba1e2;fontColor=#ffffff;strokeColor=#006EAF;" vertex="1" parent="1">
          <mxGeometry x="100" y="410" width="130" height="40" as="geometry" />
        </mxCell>
        <mxCell id="hZwKlCVVIhIbkK9A7yld-16" value="Manage Class Details" style="rounded=0;whiteSpace=wrap;html=1;fillColor=#1ba1e2;fontColor=#ffffff;strokeColor=#006EAF;" vertex="1" parent="1">
          <mxGeometry x="590" y="390" width="140" height="40" as="geometry" />
        </mxCell>
        <mxCell id="hZwKlCVVIhIbkK9A7yld-17" value="Manage Roles of User" style="rounded=0;whiteSpace=wrap;html=1;fillColor=#1ba1e2;fontColor=#ffffff;strokeColor=#006EAF;" vertex="1" parent="1">
          <mxGeometry x="190" y="340" width="140" height="40" as="geometry" />
        </mxCell>
        <mxCell id="hZwKlCVVIhIbkK9A7yld-18" value="Manage Report" style="rounded=0;whiteSpace=wrap;html=1;fillColor=#1ba1e2;fontColor=#ffffff;strokeColor=#006EAF;" vertex="1" parent="1">
          <mxGeometry x="380" y="340" width="130" height="40" as="geometry" />
        </mxCell>
        <mxCell id="hZwKlCVVIhIbkK9A7yld-19" value="Manage Teacher Profiles" style="rounded=0;whiteSpace=wrap;html=1;fillColor=#1ba1e2;fontColor=#ffffff;strokeColor=#006EAF;" vertex="1" parent="1">
          <mxGeometry x="590" y="320" width="140" height="40" as="geometry" />
        </mxCell>
        <mxCell id="hZwKlCVVIhIbkK9A7yld-20" value="Manage Fees Details" style="rounded=0;whiteSpace=wrap;html=1;fillColor=#1ba1e2;fontColor=#ffffff;strokeColor=#006EAF;" vertex="1" parent="1">
          <mxGeometry x="590" y="260" width="140" height="40" as="geometry" />
        </mxCell>
        <mxCell id="hZwKlCVVIhIbkK9A7yld-21" value="Mange Student Details" style="rounded=0;whiteSpace=wrap;html=1;fillColor=#1ba1e2;fontColor=#ffffff;strokeColor=#006EAF;" vertex="1" parent="1">
          <mxGeometry x="590" y="200" width="140" height="40" as="geometry" />
        </mxCell>
        <mxCell id="hZwKlCVVIhIbkK9A7yld-22" value="Manage Attendence Details" style="rounded=0;whiteSpace=wrap;html=1;fillColor=#1ba1e2;fontColor=#ffffff;strokeColor=#006EAF;" vertex="1" parent="1">
          <mxGeometry x="590" y="130" width="140" height="40" as="geometry" />
        </mxCell>
        <mxCell id="hZwKlCVVIhIbkK9A7yld-23" value="Manage Client Table Details" style="rounded=0;whiteSpace=wrap;html=1;fillColor=#1ba1e2;fontColor=#ffffff;strokeColor=#006EAF;" vertex="1" parent="1">
          <mxGeometry x="585" y="60" width="150" height="40" as="geometry" />
        </mxCell>
        <mxCell id="hZwKlCVVIhIbkK9A7yld-24" style="edgeStyle=orthogonalEdgeStyle;rounded=0;orthogonalLoop=1;jettySize=auto;html=1;exitX=0.5;exitY=1;exitDx=0;exitDy=0;" edge="1" parent="1" source="hZwKlCVVIhIbkK9A7yld-23" target="hZwKlCVVIhIbkK9A7yld-23">
          <mxGeometry relative="1" as="geometry" />
        </mxCell>
        <mxCell id="hZwKlCVVIhIbkK9A7yld-55" style="edgeStyle=orthogonalEdgeStyle;curved=1;rounded=0;orthogonalLoop=1;jettySize=auto;html=1;exitX=0;exitY=1;exitDx=0;exitDy=0;entryX=0.4;entryY=-0.075;entryDx=0;entryDy=0;entryPerimeter=0;" edge="1" parent="1" source="hZwKlCVVIhIbkK9A7yld-4" target="hZwKlCVVIhIbkK9A7yld-14">
          <mxGeometry relative="1" as="geometry">
            <Array as="points">
              <mxPoint x="392" y="300" />
              <mxPoint x="362" y="300" />
            </Array>
          </mxGeometry>
        </mxCell>
        <mxCell id="hZwKlCVVIhIbkK9A7yld-56" style="edgeStyle=orthogonalEdgeStyle;curved=1;rounded=0;orthogonalLoop=1;jettySize=auto;html=1;exitX=0;exitY=0.5;exitDx=0;exitDy=0;entryX=0.446;entryY=-0.1;entryDx=0;entryDy=0;entryPerimeter=0;" edge="1" parent="1">
          <mxGeometry relative="1" as="geometry">
            <mxPoint x="380" y="184" as="sourcePoint" />
            <mxPoint x="157.98000000000002" y="410" as="targetPoint" />
            <Array as="points">
              <mxPoint x="380" y="220" />
              <mxPoint x="158" y="220" />
            </Array>
          </mxGeometry>
        </mxCell>
      </root>
    </mxGraphModel>
  </diagram>
</mxfile>
